<?xml version="1.0" encoding="iso-8859-1"?>
<!-- Generator: Adobe Illustrator 19.0.0, SVG Export Plug-In . SVG Version: 6.00 Build 0)  -->
<svg version="1.1" id="Layer_1" xmlns="http://www.w3.org/2000/svg" xmlns:xlink="http://www.w3.org/1999/xlink" x="0px" y="0px"
	 viewBox="0 0 512.003 512.003" style="enable-background:new 0 0 512.003 512.003;" xml:space="preserve">
<g>
	<g>
		<path d="M378.496,390.869H28.386c-5.633,0-10.199,4.566-10.199,10.199s4.566,10.199,10.199,10.199h350.109
			c5.633,0,10.199-4.566,10.199-10.199S384.129,390.869,378.496,390.869z"/>
	</g>
</g>
<g>
	<g>
		<path d="M468.058,390.869h-37.221c-5.633,0-10.199,4.566-10.199,10.199s4.566,10.199,10.199,10.199h37.221
			c5.633,0,10.199-4.566,10.199-10.199S473.691,390.869,468.058,390.869z"/>
	</g>
</g>
<g>
	<g>
		<path d="M255.201,442.048H84.218c-5.633,0-10.199,4.566-10.199,10.199s4.566,10.199,10.199,10.199h170.984
			c5.633,0,10.199-4.566,10.199-10.199S260.834,442.048,255.201,442.048z"/>
	</g>
</g>
<g>
	<g>
		<path d="M502.818,244.028c-13.011-18.327-39.053-31.137-75.31-37.045c-0.183-0.03-0.366-0.055-0.551-0.074l-145.132-15.592
			L218.741,65.682c-1.446-2.88-4.169-4.908-7.343-5.468l-59.566-10.503c-3.52-0.62-7.105,0.646-9.455,3.336
			c-2.35,2.692-3.12,6.416-2.03,9.819l37.563,117.285l-95.638-10.275l-22.328-44.466c-1.446-2.88-4.169-4.908-7.343-5.468
			l-40.63-7.164c-3.521-0.62-7.105,0.647-9.455,3.336c-2.35,2.692-3.12,6.416-2.03,9.819l30.488,95.195
			c4.787,14.948,17.363,25.926,32.821,28.651l44.391,7.827l80.927,13.463c-1.569,3.402-2.451,7.185-2.451,11.171
			c0,14.765,12.013,26.778,26.777,26.778c14.765,0,26.778-12.013,26.778-26.778c0-0.909-0.047-1.806-0.136-2.692l15.5,2.578
			c-1.669,3.489-2.605,7.392-2.605,11.512c0,14.765,12.013,26.777,26.778,26.777c14.765,0,26.778-12.013,26.778-26.777
			c0-1.037-0.065-2.058-0.181-3.065l157.443,26.192c2.948,0.52,5.835,0.771,8.64,0.771c19.148,0,34.361-11.747,37.604-30.14
			l1.212-6.873C513.527,267.626,510.61,255.004,502.818,244.028z M164.928,72.733l37.883,6.68l75.128,149.62l-32.351-5.704
			l-14.359-42.489c-1.804-5.335-7.589-8.198-12.927-6.397c-5.336,1.804-8.2,7.591-6.397,12.927l10.788,31.92l-11.475-2.023
			L164.928,72.733z M213.442,288.623c-3.518,0-6.379-2.862-6.379-6.38s2.862-6.38,6.379-6.38c3.517,0,6.38,2.862,6.38,6.38
			S216.959,288.623,213.442,288.623z M279.756,300.02c-3.518,0-6.38-2.862-6.38-6.379s2.862-6.38,6.38-6.38s6.38,2.862,6.38,6.38
			S283.274,300.02,279.756,300.02z M491.162,276.986l-1.212,6.874c-0.858,4.864-3.279,8.48-7.197,10.746
			c-4.096,2.369-9.57,3.106-15.513,2.059l-355.608-59.16l-44.295-7.811c-7.976-1.406-14.466-7.072-16.936-14.786l-25.335-79.107
			l18.949,3.341l22.524,44.858c1.555,3.099,4.578,5.193,8.025,5.565L184.716,201.4l8.953,27.954
			c1.155,3.606,4.212,6.276,7.942,6.933l92.784,16.36c0.591,0.104,1.184,0.155,1.772,0.155c3.187,0,6.236-1.497,8.18-4.109
			c2.303-3.093,2.664-7.221,0.934-10.667L292.714,213l131.784,14.158c29.11,4.781,50.518,14.428,60.622,27.261l-42.713-6.334
			c-5.575-0.825-10.759,3.021-11.584,8.593c-0.827,5.572,3.021,10.758,8.593,11.584l51.903,7.696
			C491.27,276.301,491.223,276.642,491.162,276.986z"/>
	</g>
</g>
<g>
	<g>
		<path d="M118.271,77.524L46.044,61.03c-5.493-1.255-10.96,2.182-12.215,7.672c-1.253,5.491,2.181,10.96,7.673,12.214
			l72.226,16.495c0.765,0.174,1.528,0.258,2.279,0.258c4.652,0,8.855-3.205,9.934-7.931
			C127.196,84.247,123.762,78.778,118.271,77.524z"/>
	</g>
</g>
<g>
</g>
<g>
</g>
<g>
</g>
<g>
</g>
<g>
</g>
<g>
</g>
<g>
</g>
<g>
</g>
<g>
</g>
<g>
</g>
<g>
</g>
<g>
</g>
<g>
</g>
<g>
</g>
<g>
</g>
</svg>
